<?xml version="1.0" standalone="no"?>
<!DOCTYPE svg PUBLIC "-//W3C//DTD SVG 20010904//EN"
 "http://www.w3.org/TR/2001/REC-SVG-20010904/DTD/svg10.dtd">
<svg version="1.0" xmlns="http://www.w3.org/2000/svg"
 width="300.000000pt" height="217.000000pt" viewBox="0 0 300.000000 217.000000"
 preserveAspectRatio="xMidYMid meet">
<metadata>
Created by potrace 1.10, written by Peter Selinger 2001-2011
</metadata>
<g transform="translate(0.000000,217.000000) scale(0.100000,-0.100000)"
fill="#ffe100" stroke="none">
<path d="M2510 2166 c0 -2 7 -6 15 -10 8 -3 15 -1 15 4 0 6 -7 10 -15 10 -8 0
-15 -2 -15 -4z"/>
<path d="M2558 2163 c6 -2 18 -2 25 0 6 3 1 5 -13 5 -14 0 -19 -2 -12 -5z"/>
<path d="M2608 2163 c6 -2 18 -2 25 0 6 3 1 5 -13 5 -14 0 -19 -2 -12 -5z"/>
<path d="M2658 2163 c6 -2 18 -2 25 0 6 3 1 5 -13 5 -14 0 -19 -2 -12 -5z"/>
<path d="M2833 2148 c-13 -6 -23 -14 -23 -19 0 -4 11 -2 25 4 14 7 25 15 25
20 0 8 1 9 -27 -5z"/>
<path d="M2578 2145 c-2 -2 -19 -7 -38 -10 -72 -11 -89 -17 -100 -30 -6 -7
-20 -12 -30 -10 -11 2 -19 1 -19 -3 3 -20 -3 -25 -12 -12 -9 13 -10 13 -6 -2
5 -15 -38 -55 -55 -51 -3 2 -9 -4 -12 -13 -3 -8 -2 -12 4 -9 6 3 10 1 10 -4 0
-6 -5 -11 -11 -11 -6 0 -8 -7 -5 -16 5 -12 2 -15 -10 -10 -13 5 -15 2 -11 -14
3 -13 1 -18 -6 -13 -6 4 -8 -2 -4 -16 4 -18 2 -21 -11 -17 -13 5 -12 3 2 -9
11 -8 14 -15 8 -15 -7 0 -12 -5 -12 -11 0 -5 5 -7 12 -3 7 5 8 3 2 -7 -11 -18
-12 -79 -1 -72 5 3 6 -9 4 -26 -3 -17 -2 -29 1 -27 4 2 15 -7 25 -20 10 -13
16 -24 14 -24 -3 0 -36 12 -73 26 -84 33 -136 44 -237 51 -90 6 -108 -3 -102
-50 2 -17 1 -35 -2 -40 -6 -9 -9 -29 -17 -122 -7 -64 -23 -182 -41 -285 l-16
-94 23 -17 c12 -10 25 -16 29 -14 3 3 21 0 40 -6 19 -6 49 -10 67 -10 23 0 31
-3 25 -12 -5 -9 -3 -9 8 -1 8 7 50 12 94 13 101 1 184 11 191 22 3 5 13 9 23
9 10 0 28 9 41 20 29 25 39 26 17 2 -10 -10 -17 -22 -17 -25 0 -12 28 -7 33 6
3 8 9 6 20 -8 8 -11 13 -23 11 -26 -2 -4 5 -5 15 -2 13 3 24 -2 33 -16 7 -12
19 -21 26 -21 7 0 10 -4 7 -10 -3 -5 3 -10 13 -10 28 0 45 -23 29 -40 -9 -11
-8 -11 7 0 16 12 20 12 31 -3 7 -9 17 -17 23 -17 6 0 16 -9 22 -20 7 -12 16
-17 27 -13 12 5 15 2 10 -10 -4 -12 -2 -14 10 -10 11 4 14 3 9 -6 -5 -7 -2
-10 6 -9 7 2 12 -4 10 -12 -2 -8 -1 -12 3 -8 10 10 65 -43 58 -56 -3 -6 -2 -8
2 -3 5 4 20 0 34 -10 24 -15 25 -15 12 0 -7 9 -9 17 -4 17 7 0 11 75 12 197 2
136 6 202 14 212 9 12 9 13 0 7 -10 -5 -13 7 -13 51 0 42 3 54 10 43 7 -10 9
17 8 88 -2 75 0 102 9 102 7 0 10 -7 6 -17 -5 -14 -3 -15 7 -6 16 15 4 33 -23
33 -21 0 -22 -4 -22 -82 -1 -238 -8 -448 -16 -448 -5 0 -17 16 -26 35 -9 19
-21 35 -25 35 -5 0 -6 5 -2 12 4 6 3 8 -4 4 -6 -3 -14 0 -19 7 -4 7 -25 26
-45 41 -21 16 -35 33 -31 39 3 5 1 7 -5 3 -6 -3 -17 0 -25 8 -8 8 -17 12 -21
9 -3 -4 -6 -1 -6 5 0 7 -7 12 -15 12 -8 0 -15 7 -15 15 0 8 -7 15 -16 15 -8 0
-13 4 -9 9 3 5 -7 11 -22 13 l-28 3 3 75 c4 85 -14 144 -58 193 -55 63 -69 77
-78 77 -5 0 -22 28 -38 63 -67 147 -15 287 136 363 71 36 201 45 277 20 101
-33 201 -169 204 -277 2 -34 3 -37 6 -14 3 16 10 33 16 37 9 6 8 8 -1 8 -9 0
-11 7 -7 23 4 15 3 18 -3 9 -7 -10 -11 -5 -17 20 -4 18 -7 39 -6 46 1 7 -4 11
-11 10 -7 -2 -12 3 -10 10 3 16 -111 129 -126 124 -7 -2 -12 2 -12 9 0 7 -3 9
-6 6 -4 -3 -15 -2 -26 4 -10 6 -37 11 -60 11 -22 0 -35 3 -29 7 5 4 -7 7 -28
8 -21 1 -41 0 -43 -2z m-473 -420 c102 -21 131 -31 199 -66 101 -53 155 -124
163 -218 9 -92 -10 -144 -76 -210 -67 -68 -109 -81 -266 -81 -102 0 -253 16
-267 29 -4 3 -3 26 2 51 17 85 40 235 55 360 22 171 17 162 73 155 26 -3 79
-12 117 -20z m534 -527 c41 -29 97 -79 124 -110 l49 -57 -1 -78 c-2 -83 -7
-98 -23 -69 -24 42 -119 127 -204 182 -79 50 -166 122 -156 128 4 3 21 30 36
60 l28 55 37 -29 c20 -16 69 -53 110 -82z"/>
<path d="M2028 1673 c7 -3 16 -2 19 1 4 3 -2 6 -13 5 -11 0 -14 -3 -6 -6z"/>
<path d="M2022 1548 c-21 -143 -35 -268 -31 -272 5 -5 68 -13 164 -22 82 -7
128 8 169 56 32 39 34 84 4 146 -37 79 -176 164 -268 164 -26 0 -28 -3 -38
-72z m98 41 c8 -2 20 -11 27 -19 11 -13 12 -13 13 0 0 12 2 12 9 2 4 -8 12
-14 17 -14 18 -1 54 -30 48 -39 -3 -5 -2 -9 3 -8 22 4 35 -2 30 -15 -4 -11 -1
-13 10 -9 11 4 14 2 9 -5 -4 -7 -2 -12 3 -12 6 0 11 -7 11 -16 0 -8 5 -12 10
-9 11 7 11 7 15 -45 6 -60 -29 -111 -77 -115 -3 0 -9 -2 -12 -5 -6 -7 -168 6
-197 15 -22 7 -23 23 -5 125 7 41 10 76 6 78 -3 1 -2 24 4 51 10 51 19 55 76
40z"/>
<path d="M2068 1473 c7 -3 16 -2 19 1 4 3 -2 6 -13 5 -11 0 -14 -3 -6 -6z"/>
<path d="M2120 1457 c40 -18 70 -55 82 -103 14 -53 26 -58 20 -9 -2 19 -8 35
-12 35 -4 0 -11 11 -14 24 -6 25 -62 67 -87 65 -8 0 -3 -6 11 -12z"/>
<path d="M2170 1330 c6 -11 13 -20 16 -20 2 0 0 9 -6 20 -6 11 -13 20 -16 20
-2 0 0 -9 6 -20z"/>
<path d="M1955 1240 c3 -5 8 -10 11 -10 2 0 4 5 4 10 0 6 -5 10 -11 10 -5 0
-7 -4 -4 -10z"/>
<path d="M2771 974 c0 -11 3 -14 6 -6 3 7 2 16 -1 19 -3 4 -6 -2 -5 -13z"/>
<path d="M1570 2079 c0 -5 5 -7 10 -4 6 3 10 8 10 11 0 2 -4 4 -10 4 -5 0 -10
-5 -10 -11z"/>
<path d="M2726 2065 c4 -8 8 -15 10 -15 2 0 4 7 4 15 0 8 -4 15 -10 15 -5 0
-7 -7 -4 -15z"/>
<path d="M2891 2064 c0 -11 3 -14 6 -6 3 7 2 16 -1 19 -3 4 -6 -2 -5 -13z"/>
<path d="M310 2040 c-8 -4 -39 -18 -67 -31 -29 -12 -53 -28 -53 -34 0 -14 -32
-45 -46 -45 -5 0 -2 5 6 11 13 9 13 10 0 6 -8 -2 -15 -13 -15 -24 0 -24 -25
-74 -34 -68 -8 4 -11 -23 -16 -137 -2 -49 0 -88 4 -88 4 0 7 -9 8 -21 2 -25
61 -119 75 -119 5 0 6 -4 3 -10 -3 -6 1 -7 9 -4 9 3 16 2 16 -3 0 -9 66 -51
83 -52 4 -1 8 -1 10 -2 3 -1 25 -6 57 -14 24 -5 152 -6 195 -1 33 4 100 41 97
54 -1 6 3 12 9 12 5 0 8 4 4 9 -3 5 -1 12 5 16 5 3 10 27 10 53 0 71 11 122
24 116 6 -3 -1 6 -17 20 -15 14 -44 28 -65 31 -20 3 -64 11 -97 18 -33 7 -68
11 -77 10 -12 -2 -20 6 -24 22 -3 14 -11 25 -18 25 -6 0 -4 5 4 10 12 8 11 10
-7 10 -12 0 -23 5 -25 12 -2 6 -19 11 -37 11 l-33 0 23 18 c13 10 27 15 31 13
4 -3 8 -1 8 5 0 12 34 12 80 -2 32 -9 100 -68 100 -87 0 -4 7 -13 15 -20 8 -7
12 -17 8 -24 -5 -8 -3 -8 8 0 17 14 65 10 85 -7 11 -9 15 -8 19 3 3 8 11 15
18 16 26 2 47 8 54 17 4 4 2 5 -4 1 -19 -11 -16 2 7 31 11 14 20 21 20 15 0
-6 -5 -14 -10 -17 -6 -4 -8 -10 -5 -15 3 -5 -1 -20 -9 -32 -20 -32 -30 -83
-28 -148 0 -30 2 -56 3 -57 1 -2 2 -7 3 -12 0 -5 4 -13 9 -17 4 -4 7 -16 7
-26 0 -10 5 -18 11 -18 8 0 7 -6 -2 -17 -9 -10 -9 -14 -2 -10 8 5 18 -4 28
-22 14 -27 96 -105 113 -107 4 0 34 -8 66 -18 54 -17 84 -17 166 -3 8 2 33 11
55 20 22 10 42 19 45 20 28 9 93 115 105 174 19 86 24 128 15 138 -6 7 -7 15
-3 18 3 4 1 7 -6 7 -7 0 -9 4 -6 10 3 5 -1 22 -9 38 -8 16 -13 32 -10 35 9 9
-48 67 -65 67 -14 0 -14 2 -1 10 12 8 10 10 -8 10 -13 0 -20 4 -17 10 3 5 0 7
-7 5 -8 -3 -22 2 -33 10 -19 15 -19 15 5 4 23 -11 24 -11 11 4 -31 38 -201 68
-267 47 -74 -22 -115 -43 -110 -56 3 -8 0 -11 -8 -8 -7 3 -33 -18 -59 -45 -49
-52 -52 -53 -55 -8 -5 74 -91 172 -191 218 -51 23 -77 29 -121 28 -30 -1 -62
-5 -70 -9z m-36 -31 c-5 -9 4 -9 32 -3 148 34 278 -26 344 -159 32 -64 38 -97
18 -97 -38 1 -101 29 -116 52 -70 106 -188 127 -271 47 -108 -103 -65 -268 80
-309 40 -12 149 -13 164 -2 6 4 11 21 12 38 2 30 -1 33 -42 43 -24 6 -53 11
-64 11 -17 0 -21 6 -20 33 1 67 1 67 133 41 65 -13 120 -25 122 -27 2 -2 -1
-19 -6 -38 -6 -18 -10 -49 -10 -68 0 -66 -21 -111 -60 -131 -31 -16 -55 -18
-146 -16 -147 5 -190 19 -257 87 -53 54 -87 135 -87 210 0 102 65 213 151 259
16 9 20 15 10 18 -11 4 -11 6 0 13 19 12 22 11 13 -2z m838 -137 c7 -7 19 -12
28 -12 37 -1 153 -111 151 -144 0 -3 6 -24 14 -47 8 -23 15 -55 15 -70 0 -43
-46 -166 -76 -207 -64 -83 -227 -112 -334 -58 -68 34 -105 73 -137 143 -69
150 -20 322 110 388 47 24 61 26 135 23 45 -3 88 -10 94 -16z m-312 -46 c0 -3
-4 -8 -10 -11 -5 -3 -10 -1 -10 4 0 6 5 11 10 11 6 0 10 -2 10 -4z m-503 -18
c8 20 58 14 80 -10 22 -25 42 -75 25 -64 -5 3 -33 -20 -62 -50 -50 -53 -54
-55 -67 -38 -15 20 -14 100 1 139 8 20 7 20 -8 1 -19 -23 -21 -14 -4 14 9 14
15 16 21 7 7 -9 10 -9 14 1z m99 -103 c-1 -8 -5 -17 -8 -20 -3 -4 -2 -19 2
-35 4 -16 5 -32 2 -36 -4 -4 -1 -4 6 0 6 4 12 4 12 -1 0 -4 15 -8 32 -7 49 1
68 -6 68 -27 0 -24 -31 -32 -95 -24 -72 8 -80 10 -96 23 -8 7 -23 20 -34 28
-11 9 -14 13 -8 9 12 -6 102 80 103 98 0 4 4 7 9 7 5 0 8 -7 7 -15z"/>
<path d="M982 1820 c0 -14 2 -19 5 -12 2 6 2 18 0 25 -3 6 -5 1 -5 -13z"/>
<path d="M962 1753 c-30 -6 -70 -40 -88 -75 -31 -59 -10 -178 39 -220 114
-100 264 -39 275 112 5 72 -15 118 -67 154 -38 27 -110 40 -159 29z m124 -34
c6 -5 15 -5 19 -1 5 4 5 -1 2 -11 -4 -10 -3 -16 2 -13 4 3 18 -4 30 -15 18
-17 20 -24 10 -35 -10 -12 -9 -13 4 -8 29 11 24 -91 -6 -131 -45 -60 -42 -58
-44 -36 -1 12 2 21 6 21 5 0 8 18 7 40 -1 28 -10 51 -29 76 -16 19 -31 33 -34
30 -3 -3 6 -19 21 -36 26 -32 31 -61 20 -118 -5 -24 -14 -34 -39 -42 -62 -20
-138 31 -161 108 -10 35 -9 38 19 60 22 16 45 22 80 22 29 0 46 4 42 10 -11
17 -78 11 -113 -10 -40 -25 -42 -25 -42 0 0 11 5 20 11 20 5 0 7 5 4 10 -3 6
-2 10 4 10 6 0 7 7 4 17 -4 11 -3 14 5 9 7 -4 12 -2 12 4 0 21 63 40 110 34
25 -3 50 -10 56 -15z"/>
<path d="M1040 1520 c0 -5 5 -10 11 -10 5 0 7 5 4 10 -3 6 -8 10 -11 10 -2 0
-4 -4 -4 -10z"/>
<path d="M1020 1470 c-9 -6 -10 -10 -3 -10 6 0 15 5 18 10 8 12 4 12 -15 0z"/>
<path d="M888 1393 c7 -3 16 -2 19 1 4 3 -2 6 -13 5 -11 0 -14 -3 -6 -6z"/>
<path d="M1480 2042 c0 -5 -17 -17 -37 -26 -63 -28 -82 -40 -87 -53 -12 -29
30 -12 78 33 13 12 48 28 59 26 11 -3 9 16 -3 23 -5 3 -10 2 -10 -3z"/>
<path d="M2790 2040 c0 -5 5 -10 11 -10 5 0 7 5 4 10 -3 6 -8 10 -11 10 -2 0
-4 -4 -4 -10z"/>
<path d="M2737 2019 c7 -7 15 -10 18 -7 3 3 -2 9 -12 12 -14 6 -15 5 -6 -5z"/>
<path d="M2820 1996 c0 -2 7 -6 15 -10 8 -3 15 -1 15 4 0 6 -7 10 -15 10 -8 0
-15 -2 -15 -4z"/>
<path d="M1608 1983 c7 -3 16 -2 19 1 4 3 -2 6 -13 5 -11 0 -14 -3 -6 -6z"/>
<path d="M2860 1961 c0 -6 4 -11 10 -11 5 0 7 -7 4 -15 -4 -8 -10 -13 -14 -10
-4 3 -10 -2 -14 -10 -3 -8 -1 -15 4 -15 6 0 10 -13 10 -30 0 -16 5 -30 10 -30
6 0 9 4 8 9 -2 5 6 16 17 24 18 14 19 17 4 34 -9 10 -15 23 -12 29 2 6 -3 17
-12 24 -10 8 -15 9 -15 1z m28 -60 c10 -6 10 -10 -1 -20 -12 -9 -16 -7 -20 9
-5 21 0 25 21 11z"/>
<path d="M1491 1924 c0 -11 3 -14 6 -6 3 7 2 16 -1 19 -3 4 -6 -2 -5 -13z"/>
<path d="M1243 1916 c-10 -11 -9 -15 3 -20 9 -3 12 -1 9 4 -3 6 -1 10 4 10 6
0 11 5 11 10 0 14 -13 12 -27 -4z"/>
<path d="M2982 1900 c0 -14 2 -19 5 -12 2 6 2 18 0 25 -3 6 -5 1 -5 -13z"/>
<path d="M100 1894 c0 -8 5 -12 10 -9 6 3 10 10 10 16 0 5 -4 9 -10 9 -5 0
-10 -7 -10 -16z"/>
<path d="M71 1866 c-24 -29 -45 -123 -45 -206 -1 -111 29 -192 97 -263 26 -27
51 -47 54 -43 4 4 -10 21 -31 38 -24 20 -51 58 -74 107 -33 70 -36 83 -36 166
0 73 5 102 26 153 27 65 28 71 9 48z"/>
<path d="M2900 1841 c0 -12 5 -21 10 -21 6 0 10 6 10 14 0 8 -4 18 -10 21 -5
3 -10 -3 -10 -14z"/>
<path d="M1360 1841 c0 -6 4 -13 10 -16 6 -3 7 1 4 9 -7 18 -14 21 -14 7z"/>
<path d="M1429 1833 c-1 -4 0 -12 1 -18 1 -5 -2 -7 -6 -3 -10 11 -35 -12 -27
-25 3 -6 1 -7 -6 -3 -7 5 -20 -3 -33 -19 -11 -14 -27 -24 -34 -21 -21 8 -17
-2 6 -14 16 -8 20 -8 18 2 -2 7 3 12 10 11 6 -2 12 4 12 12 0 8 7 15 15 15 9
0 18 7 21 15 4 8 9 15 13 15 8 0 8 -8 -5 -90 -4 -30 -7 -61 -5 -69 1 -7 -1
-11 -6 -8 -4 3 -8 -9 -9 -26 -1 -31 -8 -86 -19 -137 -3 -14 -8 -52 -10 -85 -3
-33 -8 -67 -10 -76 -6 -19 32 -72 46 -64 5 3 18 1 29 -5 15 -8 20 -8 20 1 0 8
5 8 16 -2 8 -7 28 -14 42 -15 15 -1 47 -7 72 -13 25 -7 59 -13 75 -15 17 -2
44 -6 62 -10 47 -11 81 27 74 81 -1 7 3 22 10 34 8 15 8 19 0 15 -6 -4 -14 0
-17 8 -3 9 -17 16 -30 16 -23 0 -23 1 -6 18 14 14 20 36 21 88 5 123 14 184
30 184 8 0 101 87 101 95 0 11 -35 -14 -82 -59 -39 -38 -47 -52 -52 -93 -17
-135 -30 -213 -36 -213 -4 0 -27 6 -51 13 -26 8 -60 10 -84 6 -22 -4 -42 -5
-44 -3 -2 2 2 4 9 4 10 0 9 3 -3 13 -15 11 -13 26 13 184 16 94 31 175 32 180
5 17 -34 61 -60 68 -47 12 -112 17 -113 8z m91 -24 c60 -13 60 -11 29 -186
-11 -65 -23 -138 -25 -163 -3 -25 -9 -57 -14 -72 -8 -26 -7 -27 38 -33 26 -4
61 -11 77 -15 17 -5 58 -12 93 -16 34 -4 62 -11 62 -16 0 -11 -22 -102 -26
-106 -1 -2 -19 1 -41 7 -21 6 -90 20 -153 31 -176 33 -190 38 -184 69 2 14 14
87 25 161 12 74 25 160 30 190 4 30 11 79 15 108 4 28 10 52 15 52 4 0 31 -5
59 -11z"/>
<path d="M2700 1830 c0 -5 5 -10 11 -10 5 0 7 5 4 10 -3 6 -8 10 -11 10 -2 0
-4 -4 -4 -10z"/>
<path d="M2891 1788 c5 -10 12 -18 14 -18 3 0 5 8 5 18 0 10 -7 19 -14 19 -11
0 -13 -5 -5 -19z"/>
<path d="M2655 1790 c-3 -5 1 -10 10 -10 9 0 13 5 10 10 -3 6 -8 10 -10 10 -2
0 -7 -4 -10 -10z"/>
<path d="M2700 1779 c0 -5 4 -8 9 -5 5 3 11 -3 14 -14 3 -11 13 -20 24 -20 14
0 15 2 4 9 -11 7 -10 10 5 14 16 4 16 5 -3 6 -13 0 -23 6 -23 11 0 6 -7 10
-15 10 -8 0 -15 -5 -15 -11z"/>
<path d="M2803 1749 c-6 -6 -9 -18 -6 -25 8 -22 18 -16 18 11 0 14 0 25 0 25
-1 0 -6 -5 -12 -11z"/>
<path d="M2906 1709 c-26 -59 -56 -88 -81 -78 -11 4 -31 7 -45 7 -16 0 -19 -2
-7 -5 48 -12 3 -18 -126 -15 -123 3 -145 1 -157 -13 -12 -15 -7 -16 66 -9 96
10 153 10 220 0 40 -5 54 -4 64 9 7 8 19 15 26 15 8 0 14 7 14 16 0 13 3 14
14 5 12 -10 13 -8 9 8 -3 12 4 36 15 56 12 19 17 37 13 39 -4 3 -16 -13 -25
-35z m-86 -94 c11 -13 10 -14 -4 -9 -9 3 -16 10 -16 15 0 13 6 11 20 -6z"/>
<path d="M2878 1733 c7 -3 16 -2 19 1 4 3 -2 6 -13 5 -11 0 -14 -3 -6 -6z"/>
<path d="M2847 1704 c9 -15 11 -24 4 -24 -6 0 -11 -5 -11 -12 0 -6 8 -4 19 6
22 20 18 42 -9 49 -18 5 -18 3 -3 -19z"/>
<path d="M2555 1690 c-3 -5 1 -10 9 -10 9 0 16 5 16 10 0 6 -4 10 -9 10 -6 0
-13 -4 -16 -10z"/>
<path d="M2593 1694 c5 -5 41 -12 80 -15 40 -4 86 -9 102 -12 17 -2 24 -2 17
0 -7 3 -10 9 -7 14 4 5 -27 9 -72 9 -43 0 -89 3 -103 7 -14 3 -21 2 -17 -3z"/>
<path d="M2534 1648 c-3 -4 39 -8 92 -8 54 0 95 2 92 5 -9 9 -179 12 -184 3z"/>
<path d="M2465 1620 c-3 -5 -1 -10 4 -10 6 0 11 5 11 10 0 6 -2 10 -4 10 -3 0
-8 -4 -11 -10z"/>
<path d="M2890 1579 c0 -5 5 -7 10 -4 6 3 10 8 10 11 0 2 -4 4 -10 4 -5 0 -10
-5 -10 -11z"/>
<path d="M2487 1543 c15 -21 31 -40 36 -41 4 -2 4 -9 0 -15 -3 -7 -3 -9 2 -5
4 4 21 -8 39 -26 17 -19 34 -33 38 -32 4 0 17 -7 28 -16 11 -10 24 -18 28 -18
4 0 16 -11 26 -25 10 -13 22 -22 27 -19 5 2 17 -3 27 -13 38 -36 62 -53 62
-43 0 11 -146 130 -160 130 -5 0 -45 36 -89 80 -45 44 -83 80 -86 80 -4 0 7
-17 22 -37z"/>
<path d="M2643 1572 c-7 -5 4 -8 27 -7 22 0 40 3 40 8 0 9 -52 9 -67 -1z"/>
<path d="M2720 1576 c0 -2 7 -6 15 -10 8 -3 15 -1 15 4 0 6 -7 10 -15 10 -8 0
-15 -2 -15 -4z"/>
<path d="M2766 1568 c3 -5 10 -6 15 -3 13 9 11 12 -6 12 -8 0 -12 -4 -9 -9z"/>
<path d="M1681 1484 c0 -11 3 -14 6 -6 3 7 2 16 -1 19 -3 4 -6 -2 -5 -13z"/>
<path d="M1715 1480 c-19 -8 -19 -9 3 -9 12 -1 22 4 22 9 0 6 -1 10 -2 9 -2 0
-12 -4 -23 -9z"/>
<path d="M2784 1448 c1 -13 -4 -31 -12 -40 -13 -16 -12 -16 10 -6 19 9 23 18
20 40 -5 33 -20 38 -18 6z"/>
<path d="M1616 1433 c5 -5 12 -12 16 -18 4 -6 8 -2 8 8 0 9 -7 17 -17 17 -9 0
-12 -3 -7 -7z"/>
<path d="M595 1359 c-3 -10 -15 -21 -26 -24 -10 -4 -19 -10 -19 -15 0 -17
-128 -43 -181 -37 -38 5 -49 3 -41 -5 17 -17 170 -5 212 17 19 10 37 21 40 24
3 3 15 14 26 24 21 18 23 17 79 -43 32 -33 64 -60 72 -60 7 0 13 -4 13 -8 0
-7 48 -29 60 -28 3 0 16 -7 30 -17 16 -11 43 -17 77 -17 51 0 69 12 37 24 -8
3 -12 2 -9 -4 10 -17 -50 -11 -94 8 -22 10 -38 22 -33 27 4 5 2 5 -5 1 -15 -9
-49 10 -90 50 -17 18 -34 30 -36 28 -2 -2 -15 9 -30 25 -14 16 -23 32 -20 35
4 3 2 7 -3 7 -45 7 -54 5 -59 -12z"/>
<path d="M2767 1358 c9 -10 17 -18 19 -18 1 0 0 8 -3 18 -2 10 -11 19 -19 19
-11 0 -11 -4 3 -19z"/>
<path d="M2842 1340 c0 -14 2 -19 5 -12 2 6 2 18 0 25 -3 6 -5 1 -5 -13z"/>
<path d="M190 1340 c0 -5 5 -10 10 -10 6 0 10 5 10 10 0 6 -4 10 -10 10 -5 0
-10 -4 -10 -10z"/>
<path d="M220 1322 c0 -11 79 -42 84 -33 3 4 -15 15 -40 24 -24 9 -44 13 -44
9z"/>
<path d="M618 1281 c-24 -24 -23 -39 0 -18 10 10 22 14 26 10 4 -4 4 0 0 10
-3 9 -7 17 -8 16 0 0 -9 -8 -18 -18z"/>
<path d="M570 1285 c0 -5 5 -17 10 -25 5 -8 10 -10 10 -5 0 6 -5 17 -10 25 -5
8 -10 11 -10 5z"/>
<path d="M1165 1250 c-46 -31 -116 -60 -145 -60 -11 0 -20 -4 -20 -10 0 -13 6
-13 55 2 22 6 42 12 45 13 3 0 33 15 68 33 l63 32 -4 -41 c-2 -22 -10 -45 -18
-50 -23 -14 -32 -10 -18 9 11 14 10 13 -9 -2 -27 -23 -28 -36 -3 -36 10 0 21
-7 25 -15 3 -8 10 -15 16 -15 6 0 3 11 -6 25 -14 22 -14 25 -1 25 8 0 17 5 19
11 3 8 29 5 88 -9 47 -12 131 -30 188 -41 56 -11 124 -29 150 -40 64 -26 172
-49 257 -56 l70 -5 -100 20 c-55 12 -109 23 -120 25 -46 9 -92 23 -110 32 -22
12 -110 33 -165 39 -19 3 -62 12 -95 21 -33 8 -73 17 -90 20 -47 8 -59 18 -59
53 -1 48 -30 55 -81 20z"/>
<path d="M610 1201 c0 -4 -12 -8 -26 -9 -38 -3 -113 -38 -120 -56 -3 -9 -10
-13 -15 -10 -5 3 -9 2 -9 -3 -1 -4 -15 -24 -32 -43 -17 -19 -27 -29 -23 -21 6
10 4 12 -4 7 -7 -5 -10 -14 -7 -22 3 -8 2 -14 -3 -14 -5 0 -12 -12 -16 -27 -3
-15 -12 -31 -18 -35 -8 -5 -6 -8 5 -8 10 0 24 14 33 33 8 17 13 23 9 12 -24
-79 -28 -146 -10 -212 9 -37 18 -73 18 -80 1 -7 6 -9 11 -6 6 4 8 0 4 -10 -4
-10 0 -20 9 -25 8 -5 16 -18 17 -29 0 -12 4 -20 7 -18 9 5 68 -63 62 -71 -4
-4 -2 -4 5 0 6 3 16 -2 22 -11 6 -10 11 -15 11 -10 0 4 13 1 29 -7 16 -9 31
-12 35 -9 3 4 6 1 6 -5 0 -18 -33 -14 -86 8 -26 11 -49 18 -52 16 -7 -8 89
-49 111 -48 9 0 17 -5 17 -11 0 -8 3 -7 9 2 7 11 23 13 67 8 31 -3 79 -2 107
3 50 10 150 67 142 81 -3 4 -2 10 2 12 5 3 17 -7 27 -21 11 -14 14 -22 8 -18
-6 3 -14 1 -18 -5 -4 -7 -3 -9 3 -6 5 4 23 -7 39 -24 29 -31 77 -59 100 -59 7
0 16 -5 20 -11 4 -8 -4 -9 -27 -4 -19 4 -35 11 -37 16 -2 5 -9 9 -15 9 -6 0
-26 14 -44 32 -18 17 -36 29 -39 25 -4 -3 8 -19 26 -34 18 -15 40 -35 49 -43
9 -8 40 -16 71 -18 30 -2 63 -6 72 -8 10 -3 18 0 18 6 0 6 5 8 10 5 6 -4 7
-11 4 -17 -4 -7 -2 -8 5 -4 6 4 9 12 6 17 -4 5 -2 9 4 9 5 0 16 3 25 6 23 9
21 -32 -1 -45 -10 -6 -13 -11 -7 -11 17 0 34 23 34 48 0 13 4 21 9 17 6 -3 25
9 43 27 18 18 36 32 40 30 5 -1 7 2 5 7 -1 4 7 17 18 27 12 11 15 15 7 10 -11
-8 -11 -5 -1 17 7 15 16 27 21 27 4 0 7 3 6 8 -4 13 13 52 22 52 5 0 6 7 3 17
-5 12 -3 14 7 8 9 -5 11 -4 6 4 -11 18 2 63 16 55 7 -5 8 -3 3 7 -5 7 -10 22
-10 31 -1 14 3 17 18 12 13 -4 17 -2 13 5 -4 6 2 15 15 19 13 5 18 11 12 15
-6 4 -18 0 -26 -8 -9 -8 -18 -15 -22 -15 -8 0 -1 48 10 57 4 4 5 3 2 -4 -8
-13 30 -6 39 8 3 5 16 9 28 9 18 0 25 -7 28 -29 2 -16 1 -38 -3 -50 -5 -11 -4
-23 1 -26 5 -3 12 17 16 45 4 27 11 50 16 50 10 0 3 -89 -12 -150 -5 -19 -11
-59 -14 -88 -6 -61 -47 -234 -54 -228 -2 3 -17 -9 -33 -25 -27 -28 -30 -58 -5
-60 34 -4 57 -9 111 -24 33 -10 68 -17 79 -17 18 1 63 -23 79 -43 5 -6 7 -3 4
7 -8 23 2 29 26 17 10 -6 17 -7 14 -2 -3 5 -2 15 2 22 6 10 16 3 37 -23 36
-45 115 -92 169 -100 22 -4 78 -8 125 -10 47 -2 97 -7 112 -11 20 -5 38 -1 65
16 21 13 41 23 46 21 4 -1 7 7 7 19 0 11 5 17 10 14 6 -4 9 -3 8 2 -1 4 3 17
9 28 11 20 13 27 13 45 0 6 5 10 11 10 6 0 8 -7 5 -16 -3 -8 -2 -12 4 -9 6 3
10 13 10 21 0 8 8 14 18 14 25 0 56 35 48 55 -4 12 -1 15 13 10 12 -3 21 0 25
10 9 23 -44 8 -69 -20 -11 -13 -31 -25 -43 -28 -21 -5 -23 -3 -18 18 4 14 -2
46 -14 76 -17 41 -19 64 -14 110 7 61 28 96 40 65 3 -9 12 -16 19 -16 7 0 15
-3 17 -7 5 -13 128 -92 128 -83 0 11 -63 63 -98 81 -55 28 -61 39 -57 108 4
67 11 84 24 62 5 -7 10 -12 12 -11 10 4 60 -21 79 -40 11 -11 20 -18 20 -15 0
3 18 -7 40 -21 22 -15 37 -31 33 -37 -3 -6 -1 -7 6 -3 6 4 18 2 26 -4 22 -18
18 -3 -5 20 -19 19 -66 52 -208 145 -33 22 -65 50 -71 63 -6 13 -11 64 -11
114 l0 91 21 -27 c11 -14 61 -54 111 -88 50 -34 129 -99 175 -145 69 -68 83
-87 79 -105 -6 -23 -6 -23 5 -2 15 28 -20 83 -91 144 -29 25 -67 58 -84 73
-17 16 -43 35 -58 43 -16 8 -28 19 -28 25 0 6 -4 8 -8 5 -13 -8 -53 24 -46 36
4 7 2 8 -4 4 -7 -4 -12 -3 -12 3 0 5 -13 18 -30 28 -20 11 -30 25 -30 41 0 13
-4 20 -10 17 -5 -3 -10 -15 -10 -26 0 -10 -6 -19 -12 -19 -10 0 -10 -2 -1 -8
7 -4 11 -18 8 -31 -5 -28 -12 -37 -22 -27 -4 4 -1 11 7 16 8 6 10 10 4 10 -11
0 -34 -20 -34 -31 0 -4 10 -9 22 -11 17 -2 23 -11 25 -36 l3 -33 -43 25 c-23
14 -43 30 -43 36 -3 23 -5 24 -14 10 -8 -13 -11 -11 -16 8 -6 22 -24 31 -24
11 0 -6 -8 -8 -18 -5 -9 3 -32 2 -50 -3 -17 -5 -32 -6 -32 -1 0 10 -78 -26
-104 -49 -11 -9 -16 -10 -12 -4 5 9 2 11 -8 7 -9 -3 -16 -1 -16 4 0 6 8 13 18
16 13 4 13 4 -3 3 -11 0 -30 4 -41 11 -12 6 -24 8 -28 5 -3 -3 -6 -2 -6 4 0
10 -7 12 -71 14 -27 1 -36 5 -27 10 10 7 9 9 -5 9 -10 0 -15 5 -12 10 3 6 1
10 -4 10 -6 0 -11 -4 -11 -8 0 -4 -9 -8 -19 -8 -11 0 -17 4 -15 8 8 12 -20 10
-33 -3 -8 -8 -13 -7 -18 2 -6 8 -4 10 6 4 8 -5 11 -5 7 0 -4 4 -22 9 -39 10
-17 2 -35 8 -39 15 -6 9 -9 9 -12 0 -3 -9 -13 -8 -44 2 -23 8 -51 11 -66 7
-15 -4 -29 -4 -33 -1 -3 3 -18 8 -33 10 -15 2 -31 7 -36 12 -5 5 -18 5 -31 0
-13 -5 -26 -6 -29 -3 -3 4 -6 -1 -6 -11 0 -9 -5 -14 -10 -11 -6 4 -22 0 -35
-9 -29 -19 -39 -20 -29 -4 5 7 3 8 -6 3 -10 -6 -6 -13 13 -27 26 -19 40 -67
16 -52 -7 4 -9 0 -5 -12 7 -23 -20 -128 -34 -132 -5 -2 -10 -8 -10 -13 0 -6 4
-8 9 -4 5 3 12 -5 14 -17 5 -21 5 -21 4 2 -1 14 4 39 10 55 19 48 35 143 28
165 -9 27 1 39 25 33 15 -4 19 -11 15 -24 -4 -11 -9 -38 -11 -61 -3 -24 -7
-52 -8 -63 -1 -11 -5 -27 -9 -35 -8 -18 -27 -104 -32 -143 -6 -41 -27 -99 -43
-119 -16 -19 -70 -43 -78 -35 -4 3 8 21 25 39 17 18 31 38 31 43 -1 6 -16 -8
-35 -29 -26 -29 -38 -36 -47 -28 -13 11 -16 100 -4 120 3 6 2 13 -3 16 -8 5
-1 46 17 96 3 8 7 25 9 38 2 12 9 35 15 50 6 15 11 44 10 65 -1 21 2 36 7 33
10 -7 34 61 26 75 -10 15 -54 32 -95 36 -19 2 -39 9 -45 15 -7 8 -4 9 13 5 13
-3 20 -1 16 5 -3 5 -20 6 -37 2 -18 -4 -38 -7 -45 -7 -6 0 -10 -2 -8 -5 8 -8
-29 -42 -45 -42 -9 0 -20 -8 -23 -17 -6 -14 -13 -10 -46 22 -31 30 -37 42 -28
52 8 11 7 12 -5 7 -16 -6 -63 16 -101 46 -12 9 -16 10 -12 3 4 -7 2 -13 -3
-13 -6 0 -11 4 -11 9 0 6 -18 9 -40 8 -22 -2 -40 0 -40 3 0 3 -11 6 -25 6 -14
1 -25 -1 -25 -5z m184 -60 c27 -14 67 -43 88 -65 41 -41 73 -94 64 -103 -8 -9
-64 8 -84 25 -52 43 -62 51 -80 61 -11 6 -43 16 -72 22 -63 14 -70 9 -105 -79
-58 -143 -76 -192 -70 -192 2 0 0 -12 -6 -27 -28 -75 98 -183 214 -183 l36 0
-2 51 c-1 46 3 55 31 80 39 35 58 36 96 4 61 -49 28 -158 -61 -200 -61 -30
-183 -26 -253 7 -98 47 -152 113 -189 232 -24 77 -26 122 -10 198 19 88 73
155 148 184 59 22 195 14 255 -15z m405 -77 c11 -3 8 -11 -10 -30 -13 -14 -29
-50 -36 -82 -56 -246 -65 -333 -40 -382 23 -45 90 -52 133 -13 24 23 39 53 57
123 29 109 37 150 63 338 5 36 10 37 65 20 45 -13 44 -10 23 -133 -39 -220
-41 -230 -77 -305 -30 -63 -50 -89 -92 -116 -107 -70 -249 -34 -307 80 -35 68
-34 125 6 299 20 87 36 175 36 196 0 21 2 40 5 43 4 4 131 -24 174 -38z m-412
-38 c29 -17 53 -34 53 -39 0 -4 -4 -5 -10 -2 -5 3 -10 1 -10 -5 0 -6 10 -8 24
-4 29 7 43 -11 19 -25 -14 -8 -10 -10 22 -8 39 2 40 1 36 -28 -1 -16 -6 -32
-11 -35 -9 -6 -19 -70 -10 -70 7 0 27 54 34 95 3 16 14 41 25 56 17 23 18 29
6 39 -7 6 -11 19 -8 27 5 12 3 14 -8 8 -8 -5 -5 1 5 13 29 33 46 28 43 -13 -1
-19 -6 -35 -10 -35 -5 0 -6 -4 -3 -9 3 -4 1 -23 -5 -42 -10 -36 -22 -103 -23
-131 0 -9 -4 -14 -8 -12 -4 3 -8 -8 -8 -24 0 -16 -3 -32 -7 -35 -10 -11 -33
13 -33 34 0 11 -5 19 -11 19 -5 0 -7 -5 -3 -11 4 -7 -2 -10 -18 -8 -27 4 -81
-28 -120 -71 -15 -17 -22 -26 -16 -20 7 5 15 10 18 10 11 0 9 -79 -2 -86 -7
-5 -9 1 -4 19 5 21 3 25 -8 21 -8 -3 -12 -12 -9 -20 6 -16 -22 -20 -32 -4 -3
6 -13 10 -22 10 -9 0 -22 8 -30 18 -8 10 -11 11 -7 2 7 -12 5 -13 -8 -3 -8 7
-19 9 -23 5 -5 -4 -5 -2 -1 5 3 6 0 15 -7 20 -23 13 -55 83 -39 83 4 0 8 16
10 36 1 19 9 42 17 50 17 17 20 28 5 19 -12 -8 -13 0 -1 23 11 20 23 55 21 61
-1 2 4 7 10 11 7 4 13 19 13 33 0 21 3 25 26 22 14 -2 20 -2 13 1 -6 3 -10 10
-6 15 3 5 -1 9 -8 9 -10 0 -9 3 2 9 21 14 67 2 127 -33z m863 -27 c245 -43
283 -54 320 -91 24 -24 30 -26 40 -13 26 31 83 49 149 48 94 -1 163 -42 211
-126 25 -44 30 -63 30 -120 0 -90 -10 -109 -50 -94 -23 9 -31 19 -35 47 -18
113 -64 170 -138 170 -49 -1 -68 -13 -86 -56 -21 -54 6 -90 159 -210 87 -68
95 -76 120 -129 44 -91 11 -212 -70 -255 -30 -16 -152 -16 -213 1 -172 46
-284 192 -233 301 44 92 176 75 176 -23 0 -29 -6 -42 -26 -58 -15 -12 -33 -21
-41 -21 -41 0 61 -106 126 -130 67 -26 90 -25 126 4 26 21 30 31 30 73 0 41
-6 57 -35 95 -19 26 -47 54 -62 62 -48 29 -185 165 -202 200 -9 19 -16 48 -16
65 0 36 25 102 43 113 9 6 8 8 -3 8 -8 0 -51 7 -95 15 -43 8 -81 12 -83 10
-14 -14 -61 -307 -69 -422 l-6 -102 32 -31 c29 -30 41 -60 23 -60 -19 0 -133
23 -187 37 -22 6 -58 14 -80 18 -38 7 -39 8 -15 16 47 17 68 66 95 215 23 135
55 339 55 356 0 11 -68 10 -72 -1 -2 -6 -20 -5 -45 2 -46 12 -50 21 -37 86 6
29 10 32 33 26 14 -4 73 -15 131 -26z m-36 -116 c4 -9 -8 -10 -44 -6 -30 3
-55 1 -63 -5 -8 -7 -18 -8 -27 -1 -25 15 4 26 70 25 37 0 61 -5 64 -13z m266
-30 c14 -3 29 -7 34 -7 17 -2 17 -23 1 -40 -12 -12 -13 -16 -3 -16 9 -1 7 -5
-4 -14 -22 -17 -23 -27 -2 -19 15 5 15 3 0 -26 -9 -17 -12 -31 -7 -31 5 0 13
-13 19 -28 10 -28 135 -162 152 -162 4 0 20 -14 34 -31 14 -17 26 -28 26 -24
0 10 84 -74 86 -87 2 -7 6 -24 10 -37 4 -15 3 -22 -3 -18 -5 3 -9 -3 -9 -15 1
-22 -49 -66 -61 -54 -4 4 0 12 11 18 15 8 17 17 11 55 -7 50 -19 66 -119 162
-155 148 -183 181 -200 234 -12 39 -14 61 -7 85 10 34 11 34 -36 48 -7 2 -13
8 -13 13 0 9 30 7 80 -6z m-40 -49 c0 -14 -3 -23 -7 -21 -5 3 -8 -6 -8 -19 0
-13 3 -24 6 -24 4 0 9 -14 13 -30 10 -51 9 -50 71 -113 22 -22 32 -37 23 -34
-9 3 -19 0 -22 -9 -3 -9 -11 -12 -16 -9 -6 4 -22 -1 -35 -9 -14 -9 -25 -14
-25 -11 0 4 -7 0 -15 -9 -8 -8 -15 -20 -15 -26 0 -8 -10 -10 -25 -8 -29 6 -30
5 -9 -16 13 -14 17 -14 30 -2 8 8 14 19 14 25 0 6 7 11 15 11 12 0 13 -5 3
-27 -7 -16 -15 -33 -20 -39 -4 -6 -4 -24 1 -42 5 -17 7 -33 3 -36 -3 -3 0 -6
6 -6 7 0 11 -4 10 -9 -2 -5 17 -34 42 -65 44 -54 114 -99 184 -117 22 -6 14
-7 -26 -4 -55 5 -97 18 -127 40 -38 28 -90 88 -106 122 -10 21 -20 32 -22 26
-6 -18 -23 -16 -23 1 0 8 -5 16 -11 18 -8 3 -5 18 9 46 11 23 16 42 11 42 -5
0 -9 -5 -9 -12 0 -7 -3 -8 -9 -3 -4 6 -3 52 5 105 7 52 13 105 13 118 1 13 5
21 10 18 5 -4 9 22 10 59 0 64 12 94 39 95 6 0 12 -12 12 -26z m394 -19 c29
-27 60 -90 51 -104 -9 -16 23 -77 49 -91 24 -13 25 -14 9 -32 -20 -22 -42 -23
-49 -3 -4 8 -10 12 -15 10 -5 -3 -16 3 -26 14 -9 11 -21 17 -26 14 -6 -3 -7
-2 -4 4 4 6 -5 15 -18 21 -14 7 -25 16 -25 22 0 5 -8 18 -17 28 -44 47 -51 60
-40 72 9 10 9 11 0 6 -7 -4 -13 -3 -13 1 0 15 24 41 40 44 23 3 51 -12 43 -24
-4 -6 0 -8 9 -4 23 8 50 -59 47 -114 -3 -52 5 -69 32 -69 11 0 22 -7 25 -15 4
-8 10 -12 15 -9 15 9 10 21 -12 27 -12 3 -18 10 -15 15 4 6 -3 8 -15 5 -14 -4
-20 -1 -19 8 1 8 2 37 1 65 -1 43 -7 57 -37 92 -39 46 -33 57 10 17z m-1587
-281 c-3 -3 -12 -4 -19 -1 -8 3 -5 6 6 6 11 1 17 -2 13 -5z m1482 -120 c39
-54 45 -93 17 -115 -18 -15 -25 -16 -53 -4 -17 7 -34 11 -37 7 -3 -3 -6 0 -6
6 0 16 -37 52 -44 45 -3 -4 -6 3 -6 15 0 12 5 22 11 22 5 0 19 20 30 45 19 42
21 44 40 31 11 -7 33 -31 48 -52z m138 -250 c-3 -3 -12 -4 -19 -1 -8 3 -5 6 6
6 11 1 17 -2 13 -5z"/>
<path d="M421 834 c0 -11 3 -14 6 -6 3 7 2 16 -1 19 -3 4 -6 -2 -5 -13z"/>
<path d="M1051 744 c0 -11 3 -14 6 -6 3 7 2 16 -1 19 -3 4 -6 -2 -5 -13z"/>
<path d="M730 1019 c13 -6 27 -15 31 -21 4 -6 12 -7 19 -3 13 8 -32 35 -59 34
-10 0 -7 -4 9 -10z"/>
<path d="M675 970 c3 -5 11 -10 16 -10 6 0 7 5 4 10 -3 6 -11 10 -16 10 -6 0
-7 -4 -4 -10z"/>
<path d="M800 960 c13 -11 26 -18 28 -15 6 6 -28 34 -42 35 -5 0 1 -9 14 -20z"/>
<path d="M740 925 c7 -8 20 -14 29 -14 13 1 13 2 -1 6 -10 2 -18 9 -18 14 0 5
-5 9 -11 9 -8 0 -8 -5 1 -15z"/>
<path d="M827 889 c7 -7 15 -10 18 -7 3 3 -2 9 -12 12 -14 6 -15 5 -6 -5z"/>
<path d="M845 830 c-4 -12 -5 -24 -2 -27 3 -2 8 5 12 17 4 12 5 24 2 27 -3 2
-8 -5 -12 -17z"/>
<path d="M1806 647 c3 -10 9 -15 12 -12 3 3 0 11 -7 18 -10 9 -11 8 -5 -6z"/>
<path d="M1832 598 c5 -15 28 -23 28 -10 0 5 -7 13 -16 16 -10 4 -14 1 -12 -6z"/>
<path d="M1770 391 c0 -5 5 -13 10 -16 6 -3 10 -2 10 4 0 5 -4 13 -10 16 -5 3
-10 2 -10 -4z"/>
<path d="M2043 383 c4 -3 1 -13 -6 -21 -11 -13 -9 -14 10 -2 22 14 22 30 1 30
-6 0 -8 -3 -5 -7z"/>
<path d="M2080 350 c0 -5 5 -10 11 -10 5 0 7 5 4 10 -3 6 -8 10 -11 10 -2 0
-4 -4 -4 -10z"/>
<path d="M1114 1174 c-10 -8 -13 -13 -6 -9 7 4 12 0 12 -10 0 -9 4 -14 10 -10
5 3 7 12 4 19 -3 8 2 16 13 19 13 3 14 5 2 6 -8 0 -24 -6 -35 -15z"/>
<path d="M2324 1115 c-15 -19 -32 -32 -36 -29 -4 3 -8 2 -8 -3 0 -13 -58 -35
-71 -27 -7 4 -9 3 -6 -3 7 -11 -36 -23 -79 -23 -13 0 -24 -4 -24 -9 0 -9 53
-7 92 4 43 12 149 69 169 91 16 17 17 22 6 27 -9 3 -26 -8 -43 -28z"/>
<path d="M1137 1123 c-3 -5 8 -8 23 -8 15 0 26 3 23 8 -2 4 -13 7 -23 7 -10 0
-21 -3 -23 -7z"/>
<path d="M1518 1083 c7 -3 16 -2 19 1 4 3 -2 6 -13 5 -11 0 -14 -3 -6 -6z"/>
<path d="M2004 1018 c-3 -4 11 -8 30 -8 19 0 38 4 41 10 3 5 -9 9 -30 8 -20
-1 -38 -5 -41 -10z"/>
<path d="M1223 995 c-17 -18 -16 -22 2 -22 8 0 15 9 15 19 0 21 -1 22 -17 3z"/>
<path d="M2268 993 c7 -3 16 -2 19 1 4 3 -2 6 -13 5 -11 0 -14 -3 -6 -6z"/>
<path d="M1216 945 c-3 -8 -1 -15 4 -15 6 0 10 7 10 15 0 8 -2 15 -4 15 -2 0
-6 -7 -10 -15z"/>
<path d="M336 941 c-4 -7 -5 -15 -2 -18 9 -9 19 4 14 18 -4 11 -6 11 -12 0z"/>
<path d="M322 830 c1 -48 6 -80 12 -80 6 0 4 -5 -4 -10 -13 -8 -12 -11 5 -24
24 -19 41 -21 27 -3 -15 19 -25 76 -25 140 1 31 -3 57 -8 57 -5 0 -8 -36 -7
-80z"/>
<path d="M1219 908 c-15 -51 -26 -117 -18 -112 5 3 9 18 9 34 0 16 4 31 9 35
6 3 9 14 8 25 -1 17 -5 26 -8 18z"/>
<path d="M2811 814 c0 -11 3 -14 6 -6 3 7 2 16 -1 19 -3 4 -6 -2 -5 -13z"/>
<path d="M1186 735 c-3 -9 -6 -22 -5 -28 0 -7 5 -1 10 12 5 13 8 26 5 28 -2 2
-6 -3 -10 -12z"/>
<path d="M1238 733 c-2 -26 -4 -36 -13 -56 -4 -10 -5 -21 -1 -24 3 -4 6 1 6 9
0 9 4 18 8 20 13 5 23 68 12 68 -6 0 -11 -8 -12 -17z"/>
<path d="M1491 723 c0 -13 -5 -23 -11 -23 -5 0 -10 -7 -10 -16 0 -14 1 -14 16
0 8 9 13 26 11 38 l-4 23 -2 -22z"/>
<path d="M1545 730 c-3 -5 -2 -10 4 -10 10 0 8 -19 -9 -97 -6 -23 -7 -50 -3
-60 8 -20 31 86 32 145 1 31 -11 42 -24 22z"/>
<path d="M377 639 c15 -27 36 -58 45 -68 9 -11 14 -22 10 -25 -3 -4 1 -4 10
-1 14 6 11 14 -19 53 -20 26 -40 57 -46 70 -6 12 -14 22 -19 22 -5 0 3 -23 19
-51z"/>
<path d="M2666 663 c-6 -14 -5 -15 5 -6 7 7 10 15 7 18 -3 3 -9 -2 -12 -12z"/>
<path d="M1150 649 c0 -5 5 -7 10 -4 6 3 10 8 10 11 0 2 -4 4 -10 4 -5 0 -10
-5 -10 -11z"/>
<path d="M1465 616 c0 -19 3 -32 8 -29 4 2 7 17 7 34 0 16 -3 29 -7 29 -5 0
-8 -15 -8 -34z"/>
<path d="M286 627 c3 -10 9 -15 12 -12 3 3 0 11 -7 18 -10 9 -11 8 -5 -6z"/>
<path d="M2680 629 c0 -5 5 -7 10 -4 6 3 10 8 10 11 0 2 -4 4 -10 4 -5 0 -10
-5 -10 -11z"/>
<path d="M1457 556 c-4 -10 -7 -34 -6 -54 l1 -37 9 45 c10 48 7 75 -4 46z"/>
<path d="M2750 561 c0 -6 4 -13 10 -16 6 -3 7 1 4 9 -7 18 -14 21 -14 7z"/>
<path d="M2880 550 c-6 -11 -8 -20 -6 -20 3 0 10 9 16 20 6 11 8 20 6 20 -3 0
-10 -9 -16 -20z"/>
<path d="M905 530 c3 -5 8 -10 11 -10 2 0 4 5 4 10 0 6 -5 10 -11 10 -5 0 -7
-4 -4 -10z"/>
<path d="M1527 534 c-4 -4 -7 -14 -7 -23 0 -11 3 -12 11 -4 6 6 10 16 7 23 -2
6 -7 8 -11 4z"/>
<path d="M1496 493 c-3 -3 -6 -11 -6 -17 0 -6 5 -4 11 4 8 12 9 9 5 -12 -4
-16 -2 -28 4 -28 5 0 10 11 10 24 0 26 -12 40 -24 29z"/>
<path d="M2621 484 c0 -11 3 -14 6 -6 3 7 2 16 -1 19 -3 4 -6 -2 -5 -13z"/>
<path d="M1430 458 c0 -8 -13 -30 -29 -49 -35 -39 -32 -53 3 -20 24 23 42 68
31 79 -3 3 -5 -2 -5 -10z"/>
<path d="M2455 450 c-3 -5 -1 -10 4 -10 6 0 11 5 11 10 0 6 -2 10 -4 10 -3 0
-8 -4 -11 -10z"/>
<path d="M2540 446 c0 -17 16 -30 23 -19 3 5 -1 14 -9 21 -12 10 -14 10 -14
-2z"/>
<path d="M758 423 c7 -3 16 -2 19 1 4 3 -2 6 -13 5 -11 0 -14 -3 -6 -6z"/>
<path d="M1471 404 c-12 -15 -36 -38 -53 -51 -18 -12 -26 -23 -19 -23 16 0
108 87 100 95 -4 3 -16 -6 -28 -21z"/>
<path d="M2560 415 c-20 -11 -21 -14 -7 -15 10 0 25 7 33 15 19 19 7 19 -26 0z"/>
<path d="M1005 370 c3 -5 8 -10 11 -10 2 0 4 5 4 10 0 6 -5 10 -11 10 -5 0 -7
-4 -4 -10z"/>
<path d="M1210 359 c0 -5 5 -7 10 -4 6 3 10 8 10 11 0 2 -4 4 -10 4 -5 0 -10
-5 -10 -11z"/>
<path d="M1300 362 c0 -17 27 -21 47 -7 17 13 17 14 1 15 -10 0 -18 -5 -18
-11 0 -8 -5 -8 -15 1 -9 7 -15 8 -15 2z"/>
<path d="M1165 350 c-3 -5 -1 -10 4 -10 6 0 11 5 11 10 0 6 -2 10 -4 10 -3 0
-8 -4 -11 -10z"/>
<path d="M1105 330 c3 -5 10 -10 16 -10 5 0 9 5 9 10 0 6 -7 10 -16 10 -8 0
-12 -4 -9 -10z"/>
<path d="M1255 324 c-20 -15 -12 -17 19 -5 11 4 15 10 10 13 -5 4 -18 0 -29
-8z"/>
<path d="M1194 311 c4 -6 16 -16 28 -22 15 -8 18 -8 14 0 -4 6 -16 16 -28 22
-15 8 -18 8 -14 0z"/>
<path d="M1380 311 c0 -13 48 -29 104 -34 36 -4 45 -2 32 5 -9 5 -38 11 -64
13 -25 2 -48 8 -50 14 -4 13 -22 15 -22 2z"/>
<path d="M1250 282 c0 -17 33 -47 38 -33 2 6 16 11 30 12 l27 1 -25 7 c-14 4
-27 3 -29 -1 -1 -5 -12 -2 -22 8 -10 9 -19 12 -19 6z"/>
<path d="M1560 258 c32 -14 28 -13 75 -23 22 -4 49 -14 60 -21 13 -9 25 -10
35 -4 12 8 11 10 -5 10 -11 0 -31 7 -43 16 -13 9 -26 14 -29 11 -2 -3 -26 1
-51 9 -55 16 -78 17 -42 2z"/>
<path d="M1355 250 c3 -5 16 -10 28 -10 12 0 35 -7 51 -15 15 -8 42 -14 60
-14 20 1 24 3 11 6 -11 2 -38 11 -60 18 -63 21 -98 27 -90 15z"/>
<path d="M1770 201 c0 -10 19 -25 25 -20 1 2 -3 10 -11 17 -8 7 -14 8 -14 3z"/>
<path d="M1580 196 c0 -9 30 -14 35 -6 4 6 -3 10 -14 10 -12 0 -21 -2 -21 -4z"/>
<path d="M1645 180 c27 -12 43 -12 25 0 -8 5 -22 9 -30 9 -10 0 -8 -3 5 -9z"/>
<path d="M31 154 c0 -11 3 -14 6 -6 3 7 2 16 -1 19 -3 4 -6 -2 -5 -13z"/>
<path d="M1832 147 c15 -15 34 -27 42 -27 8 0 16 -5 18 -11 2 -5 10 -11 18
-12 8 -2 21 -6 28 -10 7 -5 12 -3 12 3 0 6 -8 13 -17 16 -28 9 -76 33 -103 51
-24 16 -24 15 2 -10z"/>
<path d="M2196 99 c5 -9 31 -6 40 4 4 4 -4 6 -19 5 -14 -1 -24 -5 -21 -9z"/>
<path d="M1960 90 c0 -4 28 -7 63 -8 72 -1 66 4 -10 11 -29 2 -53 1 -53 -3z"/>
<path d="M2125 91 l-40 -7 35 -6 c19 -3 37 -2 38 3 2 5 8 7 13 3 5 -3 9 0 9 5
0 6 -3 10 -7 10 -5 -1 -26 -5 -48 -8z"/>
</g>
</svg>
